<?xml version="1.0" encoding="UTF-8"?>
<!DOCTYPE svg PUBLIC "-//W3C//DTD SVG 1.1//EN" "http://www.w3.org/Graphics/SVG/1.1/DTD/svg11.dtd">
<svg xmlns="http://www.w3.org/2000/svg" version="1.1" width="512px" height="512px" style="shape-rendering:geometricPrecision; text-rendering:geometricPrecision; image-rendering:optimizeQuality; fill-rule:evenodd; clip-rule:evenodd" xmlns:xlink="http://www.w3.org/1999/xlink">
<g><path style="opacity:0.975" fill="#010202" d="M 60.5,-0.5 C 65.8333,-0.5 71.1667,-0.5 76.5,-0.5C 80.5187,1.00477 84.5187,2.8381 88.5,5C 91.7172,7.72565 95.0505,10.2256 98.5,12.5C 115.411,5.93879 132.745,1.60546 150.5,-0.5C 162.833,-0.5 175.167,-0.5 187.5,-0.5C 228.389,4.28011 264.056,20.4468 294.5,48C 310.956,64.4047 322.123,83.9047 328,106.5C 349.832,114.948 357.832,130.614 352,153.5C 348.275,161.892 342.441,168.392 334.5,173C 344.538,192.691 360.538,204.024 382.5,207C 394.532,207.947 406.532,209.114 418.5,210.5C 418.955,182.543 432.955,166.043 460.5,161C 487.312,160.328 504.312,172.828 511.5,198.5C 511.5,204.5 511.5,210.5 511.5,216.5C 506.149,235.685 493.816,248.185 474.5,254C 481.199,268.075 483.699,282.908 482,298.5C 481.052,312.927 479.386,327.261 477,341.5C 467.247,373.252 446.081,392.418 413.5,399C 404.167,399.667 394.833,399.667 385.5,399C 371.512,397.622 357.512,396.456 343.5,395.5C 343.351,396.552 343.517,397.552 344,398.5C 353.083,405.581 360.75,413.914 367,423.5C 370.994,434.525 368.828,444.191 360.5,452.5C 377.14,465.493 380.306,481.159 370,499.5C 365.195,505.141 359.361,509.141 352.5,511.5C 301.833,511.5 251.167,511.5 200.5,511.5C 198.123,510.113 195.457,509.279 192.5,509C 150.381,509.492 108.714,505.492 67.5,497C 44.1217,491.549 22.6217,482.049 3,468.5C 1.5415,466.568 0.374833,464.568 -0.5,462.5C -0.5,458.5 -0.5,454.5 -0.5,450.5C 2.93954,442.079 9.27287,437.412 18.5,436.5C 43.9618,439.987 68.9618,437.487 93.5,429C 100.027,426.487 106.193,423.32 112,419.5C 111.574,398.958 115.741,379.458 124.5,361C 97.9043,339.64 84.2377,311.807 83.5,277.5C 84.9498,252.717 87.4498,228.051 91,203.5C 94.7895,188.088 101.623,174.255 111.5,162C 96.6656,153.494 90.499,140.661 93,123.5C 96.8725,108.459 106.372,99.4586 121.5,96.5C 124.598,77.0364 117.765,62.3697 101,52.5C 86.7483,71.818 68.915,75.9847 47.5,65C 32.462,52.3477 28.6287,36.8477 36,18.5C 41.7601,8.89118 49.9268,2.55785 60.5,-0.5 Z"/></g>
<g><path style="opacity:1" fill="#d8dbde" d="M 63.5,14.5 C 83.8232,14.6607 91.6565,24.6607 87,44.5C 80.3746,54.8913 71.2079,58.058 59.5,54C 44.7706,43.1074 43.7706,31.1074 56.5,18C 58.9252,16.7874 61.2585,15.6207 63.5,14.5 Z"/></g>
<g><path style="opacity:1" fill="#7fafe1" d="M 218.5,22.5 C 217.772,24.7346 216.439,26.5679 214.5,28C 209.334,30.7484 204.334,33.7484 199.5,37C 198.39,39.7372 198.223,42.5706 199,45.5C 203.48,49.7368 208.147,53.7368 213,57.5C 215.171,63.6829 216.838,70.0162 218,76.5C 218.465,77.9308 219.299,79.0975 220.5,80C 223.167,80.6667 225.833,80.6667 228.5,80C 232.666,77.0825 236.999,74.4159 241.5,72C 249.164,72.0552 256.831,72.0552 264.5,72C 266.871,70.2568 268.205,67.9234 268.5,65C 266.605,58.2585 265.272,51.4252 264.5,44.5C 287.317,58.7519 302.984,78.7519 311.5,104.5C 309,104.833 306.5,105.167 304,105.5C 266.156,103.589 228.323,101.589 190.5,99.5C 189.432,98.5655 188.099,98.2322 186.5,98.5C 183.32,80.9728 174.653,66.8062 160.5,56C 143.616,44.3162 124.949,37.4828 104.5,35.5C 104.784,33.5853 104.451,31.9187 103.5,30.5C 103.33,29.1779 103.663,28.0113 104.5,27C 142.129,12.0696 180.129,10.5696 218.5,22.5 Z"/></g>
<g><path style="opacity:1" fill="#f8e07c" d="M 218.5,22.5 C 235.329,26.9832 250.663,34.3165 264.5,44.5C 265.272,51.4252 266.605,58.2585 268.5,65C 268.205,67.9234 266.871,70.2568 264.5,72C 256.831,72.0552 249.164,72.0552 241.5,72C 236.999,74.4159 232.666,77.0825 228.5,80C 225.833,80.6667 223.167,80.6667 220.5,80C 219.299,79.0975 218.465,77.9308 218,76.5C 216.838,70.0162 215.171,63.6829 213,57.5C 208.147,53.7368 203.48,49.7368 199,45.5C 198.223,42.5706 198.39,39.7372 199.5,37C 204.334,33.7484 209.334,30.7484 214.5,28C 216.439,26.5679 217.772,24.7346 218.5,22.5 Z"/></g>
<g><path style="opacity:1" fill="#78a5d5" d="M 103.5,30.5 C 104.451,31.9187 104.784,33.5853 104.5,35.5C 124.949,37.4828 143.616,44.3162 160.5,56C 174.653,66.8062 183.32,80.9728 186.5,98.5C 188.099,98.2322 189.432,98.5655 190.5,99.5C 172.861,98.2032 155.194,97.5366 137.5,97.5C 140.334,69.4908 129.334,49.1575 104.5,36.5C 103.534,34.604 103.201,32.604 103.5,30.5 Z"/></g>
<g><path style="opacity:1" fill="#d0d3d6" d="M 184.5,114.5 C 176.892,112.323 172.392,114.989 171,122.5C 168.475,132.816 169.308,142.816 173.5,152.5C 156.492,151.888 139.492,151.055 122.5,150C 107.768,143.136 104.268,132.636 112,118.5C 114.559,115.469 117.726,113.302 121.5,112C 142.689,111.775 163.689,112.608 184.5,114.5 Z"/></g>
<g><path style="opacity:1" fill="#dce0e3" d="M 184.5,114.5 C 231.177,116.737 277.843,119.237 324.5,122C 338.903,128.323 342.403,138.489 335,152.5C 329.614,158.728 322.78,161.394 314.5,160.5C 267.343,157.826 220.343,155.159 173.5,152.5C 169.308,142.816 168.475,132.816 171,122.5C 172.392,114.989 176.892,112.323 184.5,114.5 Z"/></g>
<g><path style="opacity:1" fill="#56a986" d="M 173.5,168.5 C 172.351,168.791 171.684,169.624 171.5,171C 171.528,172.07 171.861,172.903 172.5,173.5C 170.949,175.913 170.283,178.579 170.5,181.5C 169.343,184.273 168.676,187.273 168.5,190.5C 162.467,189.965 156.801,191.132 151.5,194C 147.221,198.626 147.887,202.626 153.5,206C 157.96,207.992 162.627,209.159 167.5,209.5C 164.451,258.306 175.951,303.306 202,344.5C 209.024,353.352 216.524,361.686 224.5,369.5C 217.862,368.502 211.195,368.335 204.5,369C 202.561,370.432 201.228,372.265 200.5,374.5C 194.171,374.1 187.838,373.767 181.5,373.5C 176.521,398.808 176.354,424.142 181,449.5C 182.263,456.583 184.429,463.25 187.5,469.5C 185.975,472.278 184.975,475.278 184.5,478.5C 178.575,480.017 176.575,483.684 178.5,489.5C 152.277,485.784 136.444,470.784 131,444.5C 127.815,425.139 127.815,405.806 131,386.5C 132.395,380.052 135.061,374.385 139,369.5C 149.452,374.651 160.452,377.984 172,379.5C 179.259,379.344 181.926,375.677 180,368.5C 179.167,367.667 178.333,366.833 177.5,366C 133.614,358.114 107.781,332.281 100,288.5C 99.4972,262.697 101.164,237.03 105,211.5C 108.797,194.572 116.297,179.572 127.5,166.5C 129.5,166.167 131.5,165.833 133.5,165.5C 146.99,166.504 160.323,167.504 173.5,168.5 Z"/></g>
<g><path style="opacity:1" fill="#5bb28d" d="M 173.5,168.5 C 221.893,170.328 270.226,172.994 318.5,176.5C 326.583,194.083 339.249,207.249 356.5,216C 360.962,218.23 365.628,219.897 370.5,221C 386.856,222.779 403.189,224.613 419.5,226.5C 419.605,230.687 418.772,234.687 417,238.5C 415.022,241.595 413.522,244.928 412.5,248.5C 408.419,251.401 407.586,255.068 410,259.5C 413.335,263.11 417.002,263.443 421,260.5C 422.626,261.018 424.293,261.352 426,261.5C 436.749,259.1 447.582,257.6 458.5,257C 462.172,262.68 464.672,268.847 466,275.5C 466.474,292.869 465.807,310.202 464,327.5C 457.214,363.785 435.381,382.785 398.5,384.5C 340.46,379.86 282.46,374.86 224.5,369.5C 216.524,361.686 209.024,353.352 202,344.5C 175.951,303.306 164.451,258.306 167.5,209.5C 173.583,209.606 179.083,207.94 184,204.5C 185.293,200.418 184.126,197.251 180.5,195C 176.699,192.584 172.699,191.084 168.5,190.5C 168.676,187.273 169.343,184.273 170.5,181.5C 178.092,193.041 188.092,195.541 200.5,189C 207.075,183.867 207.075,178.867 200.5,174C 198.833,173.333 197.167,173.333 195.5,174C 190.449,178.935 185.782,178.602 181.5,173C 178.408,172.264 175.408,172.431 172.5,173.5C 171.861,172.903 171.528,172.07 171.5,171C 171.684,169.624 172.351,168.791 173.5,168.5 Z"/></g>
<g><path style="opacity:1" fill="#020403" d="M 170.5,181.5 C 170.283,178.579 170.949,175.913 172.5,173.5C 175.408,172.431 178.408,172.264 181.5,173C 185.782,178.602 190.449,178.935 195.5,174C 197.167,173.333 198.833,173.333 200.5,174C 207.075,178.867 207.075,183.867 200.5,189C 188.092,195.541 178.092,193.041 170.5,181.5 Z"/></g>
<g><path style="opacity:1" fill="#dbdfe2" d="M 457.5,176.5 C 477.188,174.42 490.021,182.753 496,201.5C 497.817,218.37 490.984,230.203 475.5,237C 460.477,240.615 445.477,243.115 430.5,244.5C 431.765,241.204 432.932,237.871 434,234.5C 434.658,225.653 434.491,216.82 433.5,208C 434.587,192.096 442.587,181.596 457.5,176.5 Z"/></g>
<g><path style="opacity:1" fill="#020504" d="M 258.5,179.5 C 260.527,179.338 262.527,179.505 264.5,180C 267.054,182.063 269.72,183.897 272.5,185.5C 274.626,184.602 276.626,183.435 278.5,182C 286.17,180.673 289.67,183.839 289,191.5C 276.821,203.975 265.488,203.308 255,189.5C 253.755,185.235 254.922,181.902 258.5,179.5 Z"/></g>
<g><path style="opacity:1" fill="#f7a5c6" d="M 168.5,190.5 C 172.699,191.084 176.699,192.584 180.5,195C 184.126,197.251 185.293,200.418 184,204.5C 179.083,207.94 173.583,209.606 167.5,209.5C 162.627,209.159 157.96,207.992 153.5,206C 147.887,202.626 147.221,198.626 151.5,194C 156.801,191.132 162.467,189.965 168.5,190.5 Z"/></g>
<g><path style="opacity:1" fill="#faa8c9" d="M 280.5,201.5 C 290.673,200.092 299.506,202.759 307,209.5C 308.165,213.684 306.665,216.517 302.5,218C 293.187,221.729 284.187,221.063 275.5,216C 273.443,214.281 271.776,212.281 270.5,210C 272.513,205.509 275.846,202.676 280.5,201.5 Z"/></g>
<g><path style="opacity:1" fill="#030605" d="M 365.5,244.5 C 371.651,242.844 375.317,245.01 376.5,251C 373.847,259.288 369.347,260.455 363,254.5C 361.861,250.579 362.695,247.246 365.5,244.5 Z"/></g>
<g><path style="opacity:1" fill="#030605" d="M 382.5,330.5 C 389.164,330 392.331,333 392,339.5C 389.774,343.861 386.274,345.361 381.5,344C 377.204,338.963 377.537,334.463 382.5,330.5 Z"/></g>
<g><path style="opacity:1" fill="#5bb18c" d="M 200.5,374.5 C 200.724,378.562 202.724,381.395 206.5,383C 247.151,386.111 287.651,389.944 328,394.5C 328.498,397.817 328.665,401.15 328.5,404.5C 306.968,401.274 286.301,403.941 266.5,412.5C 257.823,404.331 248.156,397.498 237.5,392C 232.237,389.319 227.737,390.153 224,394.5C 223.517,395.448 223.351,396.448 223.5,397.5C 215.357,399.652 211.357,404.986 211.5,413.5C 209.832,415.34 208.332,417.34 207,419.5C 206.365,421.635 206.699,423.635 208,425.5C 215.658,431.066 223.158,436.732 230.5,442.5C 229.03,444.151 227.697,445.985 226.5,448C 229.817,448.498 233.15,448.665 236.5,448.5C 224.522,449.102 211.856,449.935 198.5,451C 196.667,451.5 195.5,452.667 195,454.5C 194.503,456.81 194.337,459.143 194.5,461.5C 191.45,463.549 189.117,466.216 187.5,469.5C 184.429,463.25 182.263,456.583 181,449.5C 176.354,424.142 176.521,398.808 181.5,373.5C 187.838,373.767 194.171,374.1 200.5,374.5 Z"/></g>
<g><path style="opacity:1" fill="#478766" d="M 223.5,397.5 C 223.933,400.195 225.266,402.362 227.5,404C 239.694,409.523 250.194,417.356 259,427.5C 260.875,435.619 257.708,439.452 249.5,439C 241.747,430.626 232.747,423.96 222.5,419C 219.88,415.023 216.213,413.19 211.5,413.5C 211.357,404.986 215.357,399.652 223.5,397.5 Z"/></g>
<g><path style="opacity:1" fill="#99dcbf" d="M 328.5,404.5 C 329.516,420.766 328.016,436.766 324,452.5C 321.131,463.195 315.298,471.862 306.5,478.5C 301.964,457.711 288.964,447.711 267.5,448.5C 274.112,441.79 276.279,433.79 274,424.5C 272.067,420.083 269.567,416.083 266.5,412.5C 286.301,403.941 306.968,401.274 328.5,404.5 Z"/></g>
<g><path style="opacity:1" fill="#468564" d="M 343.5,420.5 C 348.162,423.656 351.496,427.823 353.5,433C 352.939,439.85 349.439,442.35 343,440.5C 342.952,433.844 343.119,427.178 343.5,420.5 Z"/></g>
<g><path style="opacity:1" fill="#509d7c" d="M 116.5,489.5 C 116.938,489.565 117.272,489.399 117.5,489C 114.609,483.651 112.109,478.151 110,472.5C 107.797,462.154 105.297,452.154 102.5,442.5C 106.319,440.672 110.153,438.672 114,436.5C 116.01,451.527 121.01,465.527 129,478.5C 133.167,482.667 137.333,486.833 141.5,491C 132.954,491.707 124.621,491.207 116.5,489.5 Z"/></g>
<g><path style="opacity:1" fill="#5ab08b" d="M 102.5,442.5 C 105.297,452.154 107.797,462.154 110,472.5C 112.109,478.151 114.609,483.651 117.5,489C 117.272,489.399 116.938,489.565 116.5,489.5C 86.1354,487.159 57.1354,479.659 29.5,467C 24.5845,464.293 19.7512,461.459 15,458.5C 14.1751,456.299 14.6751,454.466 16.5,453C 45.917,455.359 74.5836,451.859 102.5,442.5 Z"/></g>
<g><path style="opacity:1" fill="#98dbbd" d="M 230.5,442.5 C 232.833,444.167 234.833,446.167 236.5,448.5C 233.15,448.665 229.817,448.498 226.5,448C 227.697,445.985 229.03,444.151 230.5,442.5 Z"/></g>
<g><path style="opacity:1" fill="#488967" d="M 194.5,461.5 C 195.627,462.122 196.627,462.955 197.5,464C 225.882,464.033 254.215,464.7 282.5,466C 290.521,471.643 292.688,479.143 289,488.5C 286.362,492.128 282.862,494.628 278.5,496C 253.5,496.667 228.5,496.667 203.5,496C 200.098,494.6 197.264,492.433 195,489.5C 193.545,486.088 191.712,482.921 189.5,480C 187.975,478.991 186.308,478.491 184.5,478.5C 184.975,475.278 185.975,472.278 187.5,469.5C 189.117,466.216 191.45,463.549 194.5,461.5 Z"/></g>
<g><path style="opacity:1" fill="#417b5c" d="M 348.5,465.5 C 344.449,477.276 338.115,487.61 329.5,496.5C 322.159,496.666 314.826,496.5 307.5,496C 320.475,489.191 329.809,479.024 335.5,465.5C 339.984,464.189 344.317,464.189 348.5,465.5 Z"/></g>
<g><path style="opacity:1" fill="#488866" d="M 348.5,465.5 C 360.196,469.915 363.363,477.915 358,489.5C 355.635,492.869 352.468,495.036 348.5,496C 342.175,496.5 335.842,496.666 329.5,496.5C 338.115,487.61 344.449,477.276 348.5,465.5 Z"/></g>
</svg>
