
<svg xmlns="http://www.w3.org/2000/svg" version="1.1" width="64px" height="64px" style="shape-rendering:geometricPrecision; text-rendering:geometricPrecision; image-rendering:optimizeQuality; fill-rule:evenodd; clip-rule:evenodd" xmlns:xlink="http://www.w3.org/1999/xlink">
<g><path style="opacity:0.772" fill="#0b0f0d" d="M 4.5,-0.5 C 6.83333,-0.5 9.16667,-0.5 11.5,-0.5C 12.5,0.833333 13.5,0.833333 14.5,-0.5C 18.8333,-0.5 23.1667,-0.5 27.5,-0.5C 35.6702,2.83772 41.3369,8.67105 44.5,17C 43.4962,18.7983 42.9962,20.6316 43,22.5C 45.4194,24.5848 48.2528,25.5848 51.5,25.5C 51.393,23.0968 52.393,21.2635 54.5,20C 57.7413,19.2069 60.7413,19.7069 63.5,21.5C 63.5,23.8333 63.5,26.1667 63.5,28.5C 62.36,29.8014 61.0267,30.9681 59.5,32C 61.9976,44.8399 56.6643,50.8399 43.5,50C 44.7433,51.1545 45.7433,52.4878 46.5,54C 46.6332,57.1194 46.2999,60.2861 45.5,63.5C 35.1667,63.5 24.8333,63.5 14.5,63.5C 9.26586,62.8665 4.26586,61.1998 -0.5,58.5C -0.5,57.1667 -0.5,55.8333 -0.5,54.5C 3.86613,53.9285 8.19947,53.0952 12.5,52C 13.2272,49.876 13.8938,47.7094 14.5,45.5C 8.55942,37.681 7.89275,29.3477 12.5,20.5C 9.37072,16.3561 10.0374,13.0228 14.5,10.5C 13.469,7.29756 11.469,6.63089 8.5,8.5C 6.62605,8.61023 5.12605,7.94356 4,6.5C 3.4436,4.11521 3.61027,1.78188 4.5,-0.5 Z"/></g>
<g><path style="opacity:1" fill="#7ca8d7" d="M 26.5,2.5 C 25.9094,3.15149 25.2427,3.81815 24.5,4.5C 25.9501,5.84983 26.6168,7.5165 26.5,9.5C 28.5,9.16667 30.5,8.83333 32.5,8.5C 32.5,7.5 32.5,6.5 32.5,5.5C 35.0016,7.1696 37.0016,9.33627 38.5,12C 31.1561,12.4518 23.8227,12.2851 16.5,11.5C 16.539,8.19032 15.2057,5.52365 12.5,3.5C 15.1142,2.03106 17.9476,1.3644 21,1.5C 23.0326,1.50558 24.866,1.83891 26.5,2.5 Z"/></g>
<g><path style="opacity:1" fill="#c3c7ca" d="M 6.5,1.5 C 10.1612,1.35012 11.1612,2.85012 9.5,6C 5.70713,6.48656 4.70713,4.98656 6.5,1.5 Z"/></g>
<g><path style="opacity:1" fill="#f2db7d" d="M 26.5,2.5 C 28.8185,2.99249 30.8185,3.99249 32.5,5.5C 32.5,6.5 32.5,7.5 32.5,8.5C 30.5,8.83333 28.5,9.16667 26.5,9.5C 26.6168,7.5165 25.9501,5.84983 24.5,4.5C 25.2427,3.81815 25.9094,3.15149 26.5,2.5 Z"/></g>
<g><path style="opacity:1" fill="#d5d9db" d="M 14.5,13.5 C 23.1593,14.0366 31.826,14.5366 40.5,15C 41.8333,16.3333 41.8333,17.6667 40.5,19C 31.826,19.2381 23.1594,18.9047 14.5,18C 13.2721,16.5098 13.2721,15.0098 14.5,13.5 Z"/></g>
<g><path style="opacity:1" fill="#53a280" d="M 30.5,21.5 C 28.8333,21.5 27.1667,21.5 25.5,21.5C 23.8008,21.3398 22.1341,21.5065 20.5,22C 21.056,22.3826 21.3893,22.8826 21.5,23.5C 17.5,24.1667 17.5,24.8333 21.5,25.5C 20.2394,29.9588 20.7394,34.2922 23,38.5C 23.9138,37.3463 24.7471,37.513 25.5,39C 24.6919,39.3076 24.0253,39.8076 23.5,40.5C 24.7629,42.0287 25.7629,43.6954 26.5,45.5C 25.9569,45.56 25.6236,45.8933 25.5,46.5C 30.6191,47.5884 35.6191,48.5884 40.5,49.5C 37.7718,49.1706 35.4385,49.8372 33.5,51.5C 26.7923,47.1788 26.1257,47.8454 31.5,53.5C 31.3333,53.8333 31.1667,54.1667 31,54.5C 29.4284,52.4372 27.595,51.7706 25.5,52.5C 26.5,53.3333 27.5,54.1667 28.5,55C 27.062,55.2189 25.7287,55.7189 24.5,56.5C 27.7848,57.3236 31.1182,57.8236 34.5,58C 35.3366,59.0113 35.67,60.1779 35.5,61.5C 30.8907,62.026 26.5573,61.3593 22.5,59.5C 20.1493,60.7135 18.316,60.0468 17,57.5C 14.8558,53.35 15.0225,49.35 17.5,45.5C 24.0289,46.5108 24.0289,46.0108 17.5,44C 15.6217,42.4571 14.1217,40.6238 13,38.5C 9.0551,22.2741 14.8884,16.6074 30.5,21.5 Z"/></g>
<g><path style="opacity:1" fill="#111d18" d="M 25.5,21.5 C 25.0269,22.9063 24.0269,23.573 22.5,23.5C 22.1667,23.5 21.8333,23.5 21.5,23.5C 21.3893,22.8826 21.056,22.3826 20.5,22C 22.1341,21.5065 23.8008,21.3398 25.5,21.5 Z"/></g>
<g><path style="opacity:1" fill="#5aae8a" d="M 25.5,21.5 C 27.1667,21.5 28.8333,21.5 30.5,21.5C 33.5184,21.3354 36.5184,21.502 39.5,22C 42.1182,26.7728 46.1182,28.6061 51.5,27.5C 51.5792,28.9305 51.2458,30.2638 50.5,31.5C 52.7713,32.3635 55.1046,32.3635 57.5,31.5C 57.7899,35.9362 57.2899,40.2695 56,44.5C 55.0975,45.7014 53.9308,46.5348 52.5,47C 43.6315,47.579 34.9649,47.079 26.5,45.5C 25.7629,43.6954 24.7629,42.0287 23.5,40.5C 24.0253,39.8076 24.6919,39.3076 25.5,39C 24.7471,37.513 23.9138,37.3463 23,38.5C 20.7394,34.2922 20.2394,29.9588 21.5,25.5C 22.3382,25.1583 22.6716,24.4916 22.5,23.5C 24.0269,23.573 25.0269,22.9063 25.5,21.5 Z"/></g>
<g><path style="opacity:1" fill="#ccd0d2" d="M 55.5,21.5 C 61.4877,21.664 62.821,24.164 59.5,29C 57.5273,29.4955 55.5273,29.6621 53.5,29.5C 53.1072,26.4867 53.7739,23.8201 55.5,21.5 Z"/></g>
<g><path style="opacity:1" fill="#e9a4bf" d="M 21.5,23.5 C 21.8333,23.5 22.1667,23.5 22.5,23.5C 22.6716,24.4916 22.3382,25.1583 21.5,25.5C 17.5,24.8333 17.5,24.1667 21.5,23.5 Z"/></g>
<g><path style="opacity:1" fill="#040a07" d="M 34.5,24.5 C 34.1667,24.5 33.8333,24.5 33.5,24.5C 31.0943,23.4768 31.0943,22.8101 33.5,22.5C 35.721,22.4387 36.0544,23.1054 34.5,24.5 Z"/></g>
<g><path style="opacity:1" fill="#e3aac0" d="M 33.5,24.5 C 33.8333,24.5 34.1667,24.5 34.5,24.5C 35.675,24.281 36.675,24.6143 37.5,25.5C 36.8333,25.8333 36.1667,26.1667 35.5,26.5C 34.2867,26.2528 33.62,25.5862 33.5,24.5 Z"/></g>
<g><path style="opacity:1" fill="#8ed0b3" d="M 40.5,49.5 C 40.9975,53.2194 40.1642,56.5527 38,59.5C 37.3632,57.6969 36.1965,56.3636 34.5,55.5C 33.5713,54.3112 33.238,52.9778 33.5,51.5C 35.4385,49.8372 37.7718,49.1706 40.5,49.5 Z"/></g>
<g><path style="opacity:1" fill="#54a381" d="M 10.5,54.5 C 11.8333,54.5 13.1667,54.5 14.5,54.5C 14.472,56.5824 15.1387,58.4157 16.5,60C 11.1055,61.0332 6.10554,60.0332 1.5,57C 4.8511,56.9428 7.8511,56.1094 10.5,54.5 Z"/></g>
<g><path style="opacity:1" fill="#427d5e" d="M 41.5,57.5 C 43.6859,57.5106 44.5192,58.5106 44,60.5C 38.2464,62.3774 37.4131,61.3774 41.5,57.5 Z"/></g>
</svg>
